<svg width="625" height="250" viewBox="0 0 625 250" fill="none" xmlns="http://www.w3.org/2000/svg">
<g filter="url(#filter0_dddddddd_13_79)">
<path d="M116.184 42.4961H108.879C108.671 41.2982 108.286 40.237 107.727 39.3125C107.167 38.375 106.47 37.5807 105.637 36.9297C104.803 36.2786 103.853 35.7904 102.785 35.4648C101.73 35.1263 100.591 34.957 99.3672 34.957C97.1927 34.957 95.2656 35.5039 93.5859 36.5977C91.9063 37.6784 90.5911 39.2669 89.6406 41.3633C88.6901 43.4466 88.2148 45.9922 88.2148 49C88.2148 52.0599 88.6901 54.638 89.6406 56.7344C90.6042 58.8177 91.9193 60.3932 93.5859 61.4609C95.2656 62.5156 97.1862 63.043 99.3477 63.043C100.546 63.043 101.665 62.8867 102.707 62.5742C103.762 62.2487 104.706 61.7734 105.539 61.1484C106.385 60.5234 107.095 59.7552 107.668 58.8437C108.254 57.9323 108.658 56.8906 108.879 55.7187L116.184 55.7578C115.91 57.6589 115.318 59.4427 114.406 61.1094C113.508 62.776 112.329 64.2474 110.871 65.5234C109.413 66.7865 107.707 67.776 105.754 68.4922C103.801 69.1953 101.633 69.5469 99.25 69.5469C95.7344 69.5469 92.5964 68.7331 89.8359 67.1055C87.0755 65.4779 84.901 63.1276 83.3125 60.0547C81.724 56.9818 80.9297 53.2969 80.9297 49C80.9297 44.6901 81.7305 41.0052 83.332 37.9453C84.9336 34.8724 87.1146 32.5221 89.875 30.8945C92.6354 29.2669 95.7604 28.4531 99.25 28.4531C101.477 28.4531 103.547 28.7656 105.461 29.3906C107.375 30.0156 109.081 30.9336 110.578 32.1445C112.076 33.3424 113.306 34.8138 114.27 36.5586C115.246 38.2904 115.884 40.2695 116.184 42.4961ZM141.628 56.3828V39H148.698V69H141.843V63.668H141.53C140.853 65.3477 139.74 66.7214 138.19 67.7891C136.654 68.8568 134.759 69.3906 132.507 69.3906C130.541 69.3906 128.802 68.9544 127.292 68.082C125.795 67.1966 124.623 65.9141 123.776 64.2344C122.93 62.5417 122.507 60.4974 122.507 58.1016V39H129.577V57.0078C129.577 58.9089 130.098 60.4193 131.14 61.5391C132.181 62.6589 133.549 63.2187 135.241 63.2187C136.283 63.2187 137.292 62.9648 138.269 62.457C139.245 61.9492 140.046 61.194 140.671 60.1914C141.309 59.1758 141.628 57.9062 141.628 56.3828ZM179.68 46.9297L173.234 47.6328C173.052 46.9818 172.733 46.3698 172.277 45.7969C171.835 45.224 171.236 44.7617 170.48 44.4102C169.725 44.0586 168.801 43.8828 167.707 43.8828C166.236 43.8828 164.999 44.2018 163.996 44.8398C163.007 45.4779 162.518 46.3047 162.531 47.3203C162.518 48.1927 162.837 48.9023 163.488 49.4492C164.152 49.9961 165.246 50.4453 166.77 50.7969L171.887 51.8906C174.725 52.5026 176.835 53.4727 178.215 54.8008C179.608 56.1289 180.311 57.8672 180.324 60.0156C180.311 61.9036 179.758 63.5703 178.664 65.0156C177.583 66.4479 176.079 67.5677 174.152 68.375C172.225 69.1823 170.012 69.5859 167.512 69.5859C163.84 69.5859 160.884 68.8177 158.645 67.2812C156.405 65.7318 155.07 63.5768 154.641 60.8164L161.535 60.1523C161.848 61.5065 162.512 62.5286 163.527 63.2187C164.543 63.9089 165.865 64.2539 167.492 64.2539C169.172 64.2539 170.52 63.9089 171.535 63.2187C172.564 62.5286 173.078 61.6758 173.078 60.6602C173.078 59.8008 172.746 59.0911 172.082 58.5312C171.431 57.9714 170.415 57.5417 169.035 57.2422L163.918 56.168C161.04 55.569 158.911 54.5599 157.531 53.1406C156.151 51.7083 155.467 49.8984 155.48 47.7109C155.467 45.862 155.969 44.2604 156.984 42.9062C158.013 41.5391 159.439 40.4844 161.262 39.7422C163.098 38.987 165.214 38.6094 167.609 38.6094C171.125 38.6094 173.892 39.3581 175.91 40.8555C177.941 42.3529 179.198 44.3776 179.68 46.9297ZM201.135 39V44.4687H183.889V39H201.135ZM188.146 31.8125H195.217V59.9766C195.217 60.9271 195.36 61.6563 195.646 62.1641C195.946 62.6589 196.337 62.9974 196.818 63.1797C197.3 63.362 197.834 63.4531 198.42 63.4531C198.863 63.4531 199.266 63.4206 199.631 63.3555C200.008 63.2904 200.295 63.2318 200.49 63.1797L201.682 68.707C201.304 68.8372 200.764 68.9805 200.061 69.1367C199.37 69.293 198.524 69.3841 197.521 69.4102C195.751 69.4622 194.156 69.1953 192.736 68.6094C191.317 68.0104 190.191 67.0859 189.357 65.8359C188.537 64.5859 188.133 63.0234 188.146 61.1484V31.8125ZM219.812 69.5859C216.882 69.5859 214.343 68.9414 212.194 67.6523C210.046 66.3633 208.379 64.5599 207.194 62.2422C206.022 59.9245 205.437 57.2161 205.437 54.1172C205.437 51.0182 206.022 48.3034 207.194 45.9727C208.379 43.6419 210.046 41.832 212.194 40.543C214.343 39.2539 216.882 38.6094 219.812 38.6094C222.741 38.6094 225.28 39.2539 227.429 40.543C229.577 41.832 231.237 43.6419 232.409 45.9727C233.594 48.3034 234.187 51.0182 234.187 54.1172C234.187 57.2161 233.594 59.9245 232.409 62.2422C231.237 64.5599 229.577 66.3633 227.429 67.6523C225.28 68.9414 222.741 69.5859 219.812 69.5859ZM219.851 63.9219C221.439 63.9219 222.767 63.4857 223.835 62.6133C224.903 61.7279 225.697 60.543 226.218 59.0586C226.752 57.5742 227.019 55.9206 227.019 54.0977C227.019 52.2617 226.752 50.6016 226.218 49.1172C225.697 47.6198 224.903 46.4284 223.835 45.543C222.767 44.6576 221.439 44.2148 219.851 44.2148C218.223 44.2148 216.869 44.6576 215.788 45.543C214.72 46.4284 213.92 47.6198 213.386 49.1172C212.865 50.6016 212.604 52.2617 212.604 54.0977C212.604 55.9206 212.865 57.5742 213.386 59.0586C213.92 60.543 214.72 61.7279 215.788 62.6133C216.869 63.4857 218.223 63.9219 219.851 63.9219ZM240.188 69V39H246.945V44.0977H247.297C247.922 42.3789 248.957 41.0378 250.402 40.0742C251.848 39.0977 253.573 38.6094 255.578 38.6094C257.609 38.6094 259.322 39.1042 260.715 40.0937C262.121 41.0703 263.111 42.4049 263.684 44.0977H263.996C264.66 42.431 265.78 41.1029 267.355 40.1133C268.944 39.1107 270.826 38.6094 273 38.6094C275.76 38.6094 278.013 39.4818 279.758 41.2266C281.503 42.9714 282.375 45.5169 282.375 48.8633V69H275.285V49.957C275.285 48.0951 274.79 46.7344 273.801 45.875C272.811 45.0026 271.6 44.5664 270.168 44.5664C268.462 44.5664 267.128 45.1003 266.164 46.168C265.214 47.2227 264.738 48.5964 264.738 50.2891V69H257.805V49.6641C257.805 48.1146 257.336 46.8776 256.398 45.9531C255.474 45.0286 254.263 44.5664 252.766 44.5664C251.75 44.5664 250.826 44.8268 249.992 45.3477C249.159 45.8555 248.495 46.5781 248 47.5156C247.505 48.4401 247.258 49.5208 247.258 50.7578V69H240.188ZM302.829 69.5859C299.821 69.5859 297.224 68.9609 295.036 67.7109C292.862 66.4479 291.188 64.6641 290.017 62.3594C288.845 60.0417 288.259 57.3138 288.259 54.1758C288.259 51.0898 288.845 48.3815 290.017 46.0508C291.201 43.707 292.855 41.8841 294.978 40.582C297.1 39.2669 299.593 38.6094 302.458 38.6094C304.307 38.6094 306.052 38.9089 307.692 39.5078C309.346 40.0937 310.804 41.0052 312.067 42.2422C313.343 43.4792 314.346 45.0547 315.075 46.9687C315.804 48.8698 316.169 51.1354 316.169 53.7656V55.9336H291.579V51.168H309.392C309.379 49.8138 309.086 48.6094 308.513 47.5547C307.94 46.487 307.139 45.6471 306.11 45.0352C305.095 44.4232 303.91 44.1172 302.556 44.1172C301.11 44.1172 299.841 44.4687 298.747 45.1719C297.653 45.862 296.8 46.7734 296.188 47.9062C295.59 49.026 295.284 50.2565 295.271 51.5977V55.7578C295.271 57.5026 295.59 59 296.228 60.25C296.866 61.487 297.757 62.4375 298.903 63.1016C300.049 63.7526 301.39 64.0781 302.927 64.0781C303.955 64.0781 304.886 63.9349 305.72 63.6484C306.553 63.349 307.276 62.9128 307.888 62.3398C308.5 61.7669 308.962 61.0573 309.274 60.2109L315.876 60.9531C315.459 62.6979 314.665 64.2214 313.493 65.5234C312.334 66.8125 310.85 67.8151 309.04 68.5312C307.23 69.2344 305.16 69.5859 302.829 69.5859ZM322.15 69V39H329.006V44H329.318C329.865 42.2682 330.803 40.9336 332.131 39.9961C333.472 39.0456 335.002 38.5703 336.721 38.5703C337.111 38.5703 337.548 38.5898 338.029 38.6289C338.524 38.6549 338.934 38.7005 339.26 38.7656V45.2695C338.96 45.1654 338.485 45.0742 337.834 44.9961C337.196 44.9049 336.577 44.8594 335.979 44.8594C334.689 44.8594 333.531 45.1393 332.502 45.6992C331.486 46.2461 330.686 47.0078 330.1 47.9844C329.514 48.9609 329.221 50.0872 329.221 51.3633V69H322.15ZM357.912 69V29H372.912C375.985 29 378.563 29.5339 380.646 30.6016C382.743 31.6693 384.325 33.1667 385.393 35.0937C386.473 37.0078 387.014 39.2409 387.014 41.793C387.014 44.3581 386.467 46.5846 385.373 48.4727C384.292 50.3477 382.697 51.7995 380.588 52.8281C378.479 53.8437 375.887 54.3516 372.814 54.3516H362.131V48.3359H371.838C373.635 48.3359 375.106 48.0885 376.252 47.5937C377.398 47.0859 378.244 46.3503 378.791 45.3867C379.351 44.4102 379.631 43.2122 379.631 41.793C379.631 40.3737 379.351 39.1628 378.791 38.1602C378.231 37.1445 377.378 36.3763 376.232 35.8555C375.087 35.3216 373.609 35.0547 371.799 35.0547H365.158V69H357.912ZM378.576 50.875L388.479 69H380.393L370.666 50.875H378.576ZM406.223 69.5859C403.215 69.5859 400.617 68.9609 398.43 67.7109C396.255 66.4479 394.582 64.6641 393.41 62.3594C392.238 60.0417 391.652 57.3138 391.652 54.1758C391.652 51.0898 392.238 48.3815 393.41 46.0508C394.595 43.707 396.249 41.8841 398.371 40.582C400.493 39.2669 402.987 38.6094 405.852 38.6094C407.701 38.6094 409.445 38.9089 411.086 39.5078C412.74 40.0937 414.198 41.0052 415.461 42.2422C416.737 43.4792 417.74 45.0547 418.469 46.9687C419.198 48.8698 419.563 51.1354 419.563 53.7656V55.9336H394.973V51.168H412.785C412.772 49.8138 412.479 48.6094 411.906 47.5547C411.333 46.487 410.533 45.6471 409.504 45.0352C408.488 44.4232 407.303 44.1172 405.949 44.1172C404.504 44.1172 403.234 44.4687 402.141 45.1719C401.047 45.862 400.194 46.7734 399.582 47.9062C398.983 49.026 398.677 50.2565 398.664 51.5977V55.7578C398.664 57.5026 398.983 59 399.621 60.25C400.259 61.487 401.151 62.4375 402.297 63.1016C403.443 63.7526 404.784 64.0781 406.32 64.0781C407.349 64.0781 408.28 63.9349 409.113 63.6484C409.947 63.349 410.669 62.9128 411.281 62.3398C411.893 61.7669 412.355 61.0573 412.668 60.2109L419.27 60.9531C418.853 62.6979 418.059 64.2214 416.887 65.5234C415.728 66.8125 414.243 67.8151 412.434 68.5312C410.624 69.2344 408.553 69.5859 406.223 69.5859ZM451.481 39L440.798 69H432.985L422.302 39H429.841L436.735 61.2852H437.048L443.962 39H451.481ZM456.374 69V39H463.444V69H456.374ZM459.929 34.7422C458.809 34.7422 457.845 34.3711 457.038 33.6289C456.231 32.8737 455.827 31.9687 455.827 30.9141C455.827 29.8464 456.231 28.9414 457.038 28.1992C457.845 27.444 458.809 27.0664 459.929 27.0664C461.062 27.0664 462.025 27.444 462.819 28.1992C463.627 28.9414 464.03 29.8464 464.03 30.9141C464.03 31.9687 463.627 32.8737 462.819 33.6289C462.025 34.3711 461.062 34.7422 459.929 34.7422ZM483.996 69.5859C480.988 69.5859 478.391 68.9609 476.203 67.7109C474.029 66.4479 472.355 64.6641 471.184 62.3594C470.012 60.0417 469.426 57.3138 469.426 54.1758C469.426 51.0898 470.012 48.3815 471.184 46.0508C472.368 43.707 474.022 41.8841 476.145 40.582C478.267 39.2669 480.76 38.6094 483.625 38.6094C485.474 38.6094 487.219 38.9089 488.859 39.5078C490.513 40.0937 491.971 41.0052 493.234 42.2422C494.51 43.4792 495.513 45.0547 496.242 46.9687C496.971 48.8698 497.336 51.1354 497.336 53.7656V55.9336H472.746V51.168H490.559C490.546 49.8138 490.253 48.6094 489.68 47.5547C489.107 46.487 488.306 45.6471 487.277 45.0352C486.262 44.4232 485.077 44.1172 483.723 44.1172C482.277 44.1172 481.008 44.4687 479.914 45.1719C478.82 45.862 477.967 46.7734 477.355 47.9062C476.757 49.026 476.451 50.2565 476.438 51.5977V55.7578C476.438 57.5026 476.757 59 477.395 60.25C478.033 61.487 478.924 62.4375 480.07 63.1016C481.216 63.7526 482.557 64.0781 484.094 64.0781C485.122 64.0781 486.053 63.9349 486.887 63.6484C487.72 63.349 488.443 62.9128 489.055 62.3398C489.667 61.7669 490.129 61.0573 490.441 60.2109L497.043 60.9531C496.626 62.6979 495.832 64.2214 494.66 65.5234C493.501 66.8125 492.017 67.8151 490.207 68.5312C488.397 69.2344 486.327 69.5859 483.996 69.5859ZM509.348 69L500.871 39H508.078L513.352 60.0937H513.625L519.016 39H526.145L531.535 59.9766H531.828L537.023 39H544.25L535.754 69H528.391L522.766 48.7266H522.355L516.73 69H509.348Z" fill="white"/>
</g>
<path d="M576.5 72L576.5 26C576.5 13.2974 566.203 3 553.5 3L508 3.00001" stroke="url(#paint0_linear_13_79)" stroke-width="5" stroke-linecap="round"/>
<path d="M44 34V80C44 92.7026 54.2975 103 67 103H112.5" stroke="url(#paint1_linear_13_79)" stroke-width="5" stroke-linecap="round"/>
<defs>
<filter id="filter0_dddddddd_13_79" x="0.929688" y="27.0664" width="623.32" height="222.52" filterUnits="userSpaceOnUse" color-interpolation-filters="sRGB">
<feFlood flood-opacity="0" result="BackgroundImageFix"/>
<feColorMatrix in="SourceAlpha" type="matrix" values="0 0 0 0 0 0 0 0 0 0 0 0 0 0 0 0 0 0 127 0" result="hardAlpha"/>
<feOffset dy="1.99324"/>
<feGaussianBlur stdDeviation="0.797297"/>
<feColorMatrix type="matrix" values="0 0 0 0 0 0 0 0 0 0 0 0 0 0 0 0 0 0 0.0862802 0"/>
<feBlend mode="normal" in2="BackgroundImageFix" result="effect1_dropShadow_13_79"/>
<feColorMatrix in="SourceAlpha" type="matrix" values="0 0 0 0 0 0 0 0 0 0 0 0 0 0 0 0 0 0 127 0" result="hardAlpha"/>
<feOffset dy="4.5288"/>
<feGaussianBlur stdDeviation="1.81152"/>
<feColorMatrix type="matrix" values="0 0 0 0 0 0 0 0 0 0 0 0 0 0 0 0 0 0 0.125428 0"/>
<feBlend mode="normal" in2="effect1_dropShadow_13_79" result="effect2_dropShadow_13_79"/>
<feColorMatrix in="SourceAlpha" type="matrix" values="0 0 0 0 0 0 0 0 0 0 0 0 0 0 0 0 0 0 127 0" result="hardAlpha"/>
<feOffset dy="7.88218"/>
<feGaussianBlur stdDeviation="3.15287"/>
<feColorMatrix type="matrix" values="0 0 0 0 0 0 0 0 0 0 0 0 0 0 0 0 0 0 0.154478 0"/>
<feBlend mode="normal" in2="effect2_dropShadow_13_79" result="effect3_dropShadow_13_79"/>
<feColorMatrix in="SourceAlpha" type="matrix" values="0 0 0 0 0 0 0 0 0 0 0 0 0 0 0 0 0 0 127 0" result="hardAlpha"/>
<feOffset dy="12.5216"/>
<feGaussianBlur stdDeviation="5.00862"/>
<feColorMatrix type="matrix" values="0 0 0 0 0 0 0 0 0 0 0 0 0 0 0 0 0 0 0.18 0"/>
<feBlend mode="normal" in2="effect3_dropShadow_13_79" result="effect4_dropShadow_13_79"/>
<feColorMatrix in="SourceAlpha" type="matrix" values="0 0 0 0 0 0 0 0 0 0 0 0 0 0 0 0 0 0 127 0" result="hardAlpha"/>
<feOffset dy="19.3198"/>
<feGaussianBlur stdDeviation="7.72793"/>
<feColorMatrix type="matrix" values="0 0 0 0 0 0 0 0 0 0 0 0 0 0 0 0 0 0 0.205522 0"/>
<feBlend mode="normal" in2="effect4_dropShadow_13_79" result="effect5_dropShadow_13_79"/>
<feColorMatrix in="SourceAlpha" type="matrix" values="0 0 0 0 0 0 0 0 0 0 0 0 0 0 0 0 0 0 127 0" result="hardAlpha"/>
<feOffset dy="30.1471"/>
<feGaussianBlur stdDeviation="12.0588"/>
<feColorMatrix type="matrix" values="0 0 0 0 0 0 0 0 0 0 0 0 0 0 0 0 0 0 0.234572 0"/>
<feBlend mode="normal" in2="effect5_dropShadow_13_79" result="effect6_dropShadow_13_79"/>
<feColorMatrix in="SourceAlpha" type="matrix" values="0 0 0 0 0 0 0 0 0 0 0 0 0 0 0 0 0 0 127 0" result="hardAlpha"/>
<feOffset dy="50.0488"/>
<feGaussianBlur stdDeviation="20.0195"/>
<feColorMatrix type="matrix" values="0 0 0 0 0 0 0 0 0 0 0 0 0 0 0 0 0 0 0.27372 0"/>
<feBlend mode="normal" in2="effect6_dropShadow_13_79" result="effect7_dropShadow_13_79"/>
<feColorMatrix in="SourceAlpha" type="matrix" values="0 0 0 0 0 0 0 0 0 0 0 0 0 0 0 0 0 0 127 0" result="hardAlpha"/>
<feOffset dy="100"/>
<feGaussianBlur stdDeviation="40"/>
<feColorMatrix type="matrix" values="0 0 0 0 0 0 0 0 0 0 0 0 0 0 0 0 0 0 0.36 0"/>
<feBlend mode="normal" in2="effect7_dropShadow_13_79" result="effect8_dropShadow_13_79"/>
<feBlend mode="normal" in="SourceGraphic" in2="effect8_dropShadow_13_79" result="shape"/>
</filter>
<linearGradient id="paint0_linear_13_79" x1="577" y1="74" x2="508" y2="3" gradientUnits="userSpaceOnUse">
<stop stop-color="#55B000"/>
<stop offset="0.500917" stop-color="white" stop-opacity="0.156606"/>
<stop offset="1" stop-color="#50790B"/>
</linearGradient>
<linearGradient id="paint1_linear_13_79" x1="43.5" y1="32" x2="112.5" y2="103" gradientUnits="userSpaceOnUse">
<stop stop-color="#55B000"/>
<stop offset="0.500917" stop-color="white" stop-opacity="0.156606"/>
<stop offset="1" stop-color="#50790B"/>
</linearGradient>
</defs>
</svg>
