<svg width="196" height="64" viewBox="0 0 196 64" fill="none" xmlns="http://www.w3.org/2000/svg">
<circle opacity="0.75" cx="32" cy="32" r="31" stroke="white" stroke-width="2"/>
<path opacity="0.75" d="M44.5 29.4019C46.5 30.5566 46.5 33.4434 44.5 34.5981L28 44.1244C26 45.2791 23.5 43.8357 23.5 41.5263L23.5 22.4737C23.5 20.1643 26 18.7209 28 19.8756L44.5 29.4019Z" fill="white"/>
<path opacity="0.75" d="M81.7614 39V24.4545H83.5227V37.4375H90.2841V39H81.7614ZM92.7841 39V28.0909H94.4602V39H92.7841ZM93.6364 26.2727C93.3097 26.2727 93.0279 26.1615 92.7912 25.9389C92.5592 25.7164 92.4432 25.4489 92.4432 25.1364C92.4432 24.8239 92.5592 24.5563 92.7912 24.3338C93.0279 24.1113 93.3097 24 93.6364 24C93.9631 24 94.2424 24.1113 94.4744 24.3338C94.7112 24.5563 94.8295 24.8239 94.8295 25.1364C94.8295 25.4489 94.7112 25.7164 94.4744 25.9389C94.2424 26.1615 93.9631 26.2727 93.6364 26.2727ZM106.451 28.0909L102.417 39H100.712L96.6779 28.0909H98.4961L101.507 36.7841H101.621L104.632 28.0909H106.451ZM112.846 39.2273C111.795 39.2273 110.888 38.9953 110.126 38.5312C109.368 38.0625 108.784 37.4091 108.372 36.571C107.965 35.7282 107.761 34.7481 107.761 33.6307C107.761 32.5133 107.965 31.5284 108.372 30.6761C108.784 29.8191 109.357 29.1515 110.091 28.6733C110.829 28.1903 111.691 27.9489 112.676 27.9489C113.244 27.9489 113.805 28.0436 114.359 28.233C114.913 28.4223 115.417 28.7301 115.872 29.1562C116.326 29.5777 116.689 30.1364 116.958 30.8324C117.228 31.5284 117.363 32.3854 117.363 33.4034V34.1136H108.954V32.6648H115.659C115.659 32.0492 115.536 31.5 115.289 31.017C115.048 30.5341 114.702 30.1529 114.252 29.8736C113.807 29.5942 113.282 29.4545 112.676 29.4545C112.008 29.4545 111.431 29.6203 110.943 29.9517C110.46 30.2784 110.088 30.7045 109.828 31.2301C109.567 31.7557 109.437 32.3191 109.437 32.9205V33.8864C109.437 34.7102 109.579 35.4086 109.863 35.9815C110.152 36.5497 110.552 36.983 111.064 37.2812C111.575 37.5748 112.169 37.7216 112.846 37.7216C113.287 37.7216 113.684 37.66 114.039 37.5369C114.399 37.4091 114.709 37.2197 114.97 36.9688C115.23 36.7131 115.431 36.3958 115.574 36.017L117.193 36.4716C117.022 37.0208 116.736 37.5038 116.333 37.9205C115.931 38.3324 115.434 38.6544 114.842 38.8864C114.25 39.1136 113.585 39.2273 112.846 39.2273ZM130.254 39H125.765V24.4545H130.453C131.864 24.4545 133.071 24.7457 134.075 25.3281C135.079 25.9058 135.848 26.7367 136.383 27.821C136.918 28.9006 137.186 30.1932 137.186 31.6989C137.186 33.214 136.916 34.5185 136.376 35.6122C135.836 36.7012 135.05 37.5393 134.018 38.1264C132.986 38.7088 131.731 39 130.254 39ZM127.527 37.4375H130.14C131.343 37.4375 132.34 37.2055 133.13 36.7415C133.921 36.2775 134.511 35.617 134.899 34.7599C135.287 33.9029 135.481 32.8826 135.481 31.6989C135.481 30.5246 135.289 29.5137 134.906 28.6662C134.522 27.8139 133.949 27.1605 133.187 26.706C132.425 26.2467 131.475 26.017 130.339 26.017H127.527V37.4375ZM144.487 39.2273C143.436 39.2273 142.529 38.9953 141.767 38.5312C141.009 38.0625 140.424 37.4091 140.012 36.571C139.605 35.7282 139.402 34.7481 139.402 33.6307C139.402 32.5133 139.605 31.5284 140.012 30.6761C140.424 29.8191 140.997 29.1515 141.731 28.6733C142.47 28.1903 143.332 27.9489 144.316 27.9489C144.885 27.9489 145.446 28.0436 146 28.233C146.554 28.4223 147.058 28.7301 147.512 29.1562C147.967 29.5777 148.329 30.1364 148.599 30.8324C148.869 31.5284 149.004 32.3854 149.004 33.4034V34.1136H140.595V32.6648H147.299C147.299 32.0492 147.176 31.5 146.93 31.017C146.689 30.5341 146.343 30.1529 145.893 29.8736C145.448 29.5942 144.922 29.4545 144.316 29.4545C143.649 29.4545 143.071 29.6203 142.583 29.9517C142.1 30.2784 141.729 30.7045 141.468 31.2301C141.208 31.7557 141.078 32.3191 141.078 32.9205V33.8864C141.078 34.7102 141.22 35.4086 141.504 35.9815C141.793 36.5497 142.193 36.983 142.704 37.2812C143.216 37.5748 143.81 37.7216 144.487 37.7216C144.927 37.7216 145.325 37.66 145.68 37.5369C146.04 37.4091 146.35 37.2197 146.61 36.9688C146.871 36.7131 147.072 36.3958 147.214 36.017L148.833 36.4716C148.663 37.0208 148.377 37.5038 147.974 37.9205C147.572 38.3324 147.074 38.6544 146.483 38.8864C145.891 39.1136 145.225 39.2273 144.487 39.2273ZM151.554 39V28.0909H153.173V29.7955H153.315C153.542 29.2131 153.909 28.7609 154.416 28.4389C154.922 28.1122 155.531 27.9489 156.241 27.9489C156.961 27.9489 157.56 28.1122 158.038 28.4389C158.521 28.7609 158.897 29.2131 159.167 29.7955H159.281C159.56 29.232 159.979 28.7846 160.538 28.4531C161.097 28.117 161.767 27.9489 162.548 27.9489C163.523 27.9489 164.321 28.2543 164.941 28.8651C165.562 29.4711 165.872 30.4157 165.872 31.6989V39H164.196V31.6989C164.196 30.8939 163.975 30.3187 163.535 29.973C163.095 29.6274 162.576 29.4545 161.98 29.4545C161.213 29.4545 160.618 29.6866 160.197 30.1506C159.776 30.6098 159.565 31.1922 159.565 31.8977V39H157.86V31.5284C157.86 30.9081 157.659 30.4086 157.257 30.0298C156.854 29.6463 156.336 29.4545 155.701 29.4545C155.266 29.4545 154.859 29.5705 154.48 29.8026C154.106 30.0346 153.803 30.3565 153.571 30.7685C153.343 31.1757 153.23 31.6468 153.23 32.1818V39H151.554ZM173.368 39.2273C172.383 39.2273 171.519 38.9929 170.776 38.5241C170.037 38.0554 169.46 37.3996 169.043 36.5568C168.631 35.714 168.425 34.7292 168.425 33.6023C168.425 32.4659 168.631 31.474 169.043 30.6264C169.46 29.7789 170.037 29.1207 170.776 28.652C171.519 28.1832 172.383 27.9489 173.368 27.9489C174.353 27.9489 175.215 28.1832 175.953 28.652C176.697 29.1207 177.275 29.7789 177.686 30.6264C178.103 31.474 178.311 32.4659 178.311 33.6023C178.311 34.7292 178.103 35.714 177.686 36.5568C177.275 37.3996 176.697 38.0554 175.953 38.5241C175.215 38.9929 174.353 39.2273 173.368 39.2273ZM173.368 37.7216C174.116 37.7216 174.732 37.5298 175.215 37.1463C175.698 36.7628 176.055 36.2585 176.287 35.6335C176.519 35.0085 176.635 34.3314 176.635 33.6023C176.635 32.8731 176.519 32.1937 176.287 31.5639C176.055 30.9342 175.698 30.4252 175.215 30.0369C174.732 29.6487 174.116 29.4545 173.368 29.4545C172.62 29.4545 172.005 29.6487 171.522 30.0369C171.039 30.4252 170.681 30.9342 170.449 31.5639C170.217 32.1937 170.101 32.8731 170.101 33.6023C170.101 34.3314 170.217 35.0085 170.449 35.6335C170.681 36.2585 171.039 36.7628 171.522 37.1463C172.005 37.5298 172.62 37.7216 173.368 37.7216ZM182.092 39.1136C181.741 39.1136 181.441 38.9882 181.19 38.7372C180.939 38.4863 180.813 38.1856 180.813 37.8352C180.813 37.4848 180.939 37.1842 181.19 36.9332C181.441 36.6823 181.741 36.5568 182.092 36.5568C182.442 36.5568 182.743 36.6823 182.994 36.9332C183.245 37.1842 183.37 37.4848 183.37 37.8352C183.37 38.0672 183.311 38.2803 183.192 38.4744C183.079 38.6686 182.925 38.8248 182.731 38.9432C182.541 39.0568 182.328 39.1136 182.092 39.1136ZM187.599 39.1136C187.249 39.1136 186.948 38.9882 186.697 38.7372C186.446 38.4863 186.321 38.1856 186.321 37.8352C186.321 37.4848 186.446 37.1842 186.697 36.9332C186.948 36.6823 187.249 36.5568 187.599 36.5568C187.95 36.5568 188.25 36.6823 188.501 36.9332C188.752 37.1842 188.878 37.4848 188.878 37.8352C188.878 38.0672 188.819 38.2803 188.7 38.4744C188.587 38.6686 188.433 38.8248 188.239 38.9432C188.049 39.0568 187.836 39.1136 187.599 39.1136ZM193.107 39.1136C192.757 39.1136 192.456 38.9882 192.205 38.7372C191.954 38.4863 191.829 38.1856 191.829 37.8352C191.829 37.4848 191.954 37.1842 192.205 36.9332C192.456 36.6823 192.757 36.5568 193.107 36.5568C193.458 36.5568 193.758 36.6823 194.009 36.9332C194.26 37.1842 194.386 37.4848 194.386 37.8352C194.386 38.0672 194.326 38.2803 194.208 38.4744C194.094 38.6686 193.941 38.8248 193.746 38.9432C193.557 39.0568 193.344 39.1136 193.107 39.1136Z" fill="white"/>
</svg>
