<svg width="132" height="19" viewBox="0 0 132 19" fill="none" xmlns="http://www.w3.org/2000/svg">
<path d="M9.5 0L11.6329 6.56434H18.535L12.9511 10.6213L15.084 17.1857L9.5 13.1287L3.91604 17.1857L6.04892 10.6213L0.464963 6.56434H7.36712L9.5 0Z" fill="#FFF84E"/>
<path d="M39.8999 0L42.0328 6.56434H48.9349L43.351 10.6213L45.4839 17.1857L39.8999 13.1287L34.3159 17.1857L36.4488 10.6213L30.8649 6.56434H37.767L39.8999 0Z" fill="#FFF84E"/>
<path d="M70.3 0L72.4329 6.56434H79.3351L73.7511 10.6213L75.884 17.1857L70.3 13.1287L64.7161 17.1857L66.849 10.6213L61.265 6.56434H68.1672L70.3 0Z" fill="#FFF84E"/>
<path d="M100.7 0L102.833 6.56434H109.735L104.151 10.6213L106.284 17.1857L100.7 13.1287L95.116 17.1857L97.2489 10.6213L91.6649 6.56434H98.5671L100.7 0Z" fill="#FFF84E"/>
<path d="M131.1 0L131.1 6.56434V9.5L131.1 13.1287L125.516 17.1857L127.649 10.6213L122.065 6.56434H128.967L131.1 0Z" fill="#FFF84E"/>
</svg>
