<svg width="559" height="260" viewBox="0 0 559 260" fill="none" xmlns="http://www.w3.org/2000/svg">
<g filter="url(#filter0_dddddddd_12_11)">
<path d="M117.688 48C117.688 52.3099 116.88 56.0013 115.266 59.0742C113.664 62.1341 111.477 64.4779 108.703 66.1055C105.943 67.7331 102.811 68.5469 99.3086 68.5469C95.806 68.5469 92.668 67.7331 89.8945 66.1055C87.1341 64.4648 84.9466 62.1146 83.332 59.0547C81.7305 55.9818 80.9297 52.2969 80.9297 48C80.9297 43.6901 81.7305 40.0052 83.332 36.9453C84.9466 33.8724 87.1341 31.5221 89.8945 29.8945C92.668 28.2669 95.806 27.4531 99.3086 27.4531C102.811 27.4531 105.943 28.2669 108.703 29.8945C111.477 31.5221 113.664 33.8724 115.266 36.9453C116.88 40.0052 117.688 43.6901 117.688 48ZM110.402 48C110.402 44.9661 109.927 42.4076 108.977 40.3242C108.039 38.2279 106.737 36.6458 105.07 35.5781C103.404 34.4974 101.483 33.957 99.3086 33.957C97.1341 33.957 95.2135 34.4974 93.5469 35.5781C91.8802 36.6458 90.5716 38.2279 89.6211 40.3242C88.6836 42.4076 88.2148 44.9661 88.2148 48C88.2148 51.0339 88.6836 53.599 89.6211 55.6953C90.5716 57.7786 91.8802 59.3607 93.5469 60.4414C95.2135 61.5091 97.1341 62.043 99.3086 62.043C101.483 62.043 103.404 61.5091 105.07 60.4414C106.737 59.3607 108.039 57.7786 108.977 55.6953C109.927 53.599 110.402 51.0339 110.402 48ZM143.347 55.3828V38H150.417V68H143.562V62.668H143.249C142.572 64.3477 141.459 65.7214 139.909 66.7891C138.373 67.8568 136.478 68.3906 134.226 68.3906C132.259 68.3906 130.521 67.9544 129.011 67.082C127.513 66.1966 126.341 64.9141 125.495 63.2344C124.649 61.5417 124.226 59.4974 124.226 57.1016V38H131.296V56.0078C131.296 57.9089 131.817 59.4193 132.858 60.5391C133.9 61.6589 135.267 62.2187 136.96 62.2187C138.002 62.2187 139.011 61.9648 139.987 61.457C140.964 60.9492 141.765 60.194 142.39 59.1914C143.028 58.1758 143.347 56.9062 143.347 55.3828ZM157.688 68V38H164.543V43H164.855C165.402 41.2682 166.34 39.9336 167.668 38.9961C169.009 38.0456 170.539 37.5703 172.258 37.5703C172.648 37.5703 173.085 37.5898 173.566 37.6289C174.061 37.6549 174.471 37.7005 174.797 37.7656V44.2695C174.497 44.1654 174.022 44.0742 173.371 43.9961C172.733 43.9049 172.115 43.8594 171.516 43.8594C170.227 43.8594 169.068 44.1393 168.039 44.6992C167.023 45.2461 166.223 46.0078 165.637 46.9844C165.051 47.9609 164.758 49.0872 164.758 50.3633V68H157.688ZM191.691 34.0742V28H223.605V34.0742H211.242V68H204.055V34.0742H191.691ZM238.181 68.5859C235.251 68.5859 232.712 67.9414 230.563 66.6523C228.415 65.3633 226.748 63.5599 225.563 61.2422C224.392 58.9245 223.806 56.2161 223.806 53.1172C223.806 50.0182 224.392 47.3034 225.563 44.9727C226.748 42.6419 228.415 40.832 230.563 39.543C232.712 38.2539 235.251 37.6094 238.181 37.6094C241.11 37.6094 243.649 38.2539 245.798 39.543C247.946 40.832 249.606 42.6419 250.778 44.9727C251.963 47.3034 252.556 50.0182 252.556 53.1172C252.556 56.2161 251.963 58.9245 250.778 61.2422C249.606 63.5599 247.946 65.3633 245.798 66.6523C243.649 67.9414 241.11 68.5859 238.181 68.5859ZM238.22 62.9219C239.808 62.9219 241.136 62.4857 242.204 61.6133C243.272 60.7279 244.066 59.543 244.587 58.0586C245.121 56.5742 245.388 54.9206 245.388 53.0977C245.388 51.2617 245.121 49.6016 244.587 48.1172C244.066 46.6198 243.272 45.4284 242.204 44.543C241.136 43.6576 239.808 43.2148 238.22 43.2148C236.592 43.2148 235.238 43.6576 234.157 44.543C233.09 45.4284 232.289 46.6198 231.755 48.1172C231.234 49.6016 230.974 51.2617 230.974 53.0977C230.974 54.9206 231.234 56.5742 231.755 58.0586C232.289 59.543 233.09 60.7279 234.157 61.6133C235.238 62.4857 236.592 62.9219 238.22 62.9219ZM258.557 79.25V38H265.51V42.9609H265.92C266.285 42.2318 266.799 41.457 267.463 40.6367C268.127 39.8034 269.025 39.0937 270.158 38.5078C271.291 37.9089 272.736 37.6094 274.494 37.6094C276.812 37.6094 278.902 38.2018 280.764 39.3867C282.639 40.5586 284.123 42.2969 285.217 44.6016C286.324 46.8932 286.877 49.7057 286.877 53.0391C286.877 56.3333 286.337 59.1328 285.256 61.4375C284.175 63.7422 282.704 65.5 280.842 66.7109C278.98 67.9219 276.87 68.5273 274.514 68.5273C272.795 68.5273 271.369 68.2409 270.236 67.668C269.104 67.0951 268.192 66.4049 267.502 65.5977C266.825 64.7773 266.298 64.0026 265.92 63.2734H265.627V79.25H258.557ZM265.49 53C265.49 54.9401 265.764 56.6393 266.311 58.0977C266.87 59.556 267.671 60.6953 268.713 61.5156C269.768 62.3229 271.044 62.7266 272.541 62.7266C274.104 62.7266 275.412 62.3099 276.467 61.4766C277.521 60.6302 278.316 59.4779 278.85 58.0195C279.396 56.5482 279.67 54.875 279.67 53C279.67 51.138 279.403 49.4844 278.869 48.0391C278.335 46.5937 277.541 45.4609 276.486 44.6406C275.432 43.8203 274.117 43.4102 272.541 43.4102C271.031 43.4102 269.748 43.8073 268.693 44.6016C267.639 45.3958 266.838 46.5091 266.291 47.9414C265.757 49.3737 265.49 51.0599 265.49 53ZM328.625 38.9961C328.443 37.2904 327.674 35.9622 326.32 35.0117C324.979 34.0612 323.234 33.5859 321.086 33.5859C319.576 33.5859 318.28 33.8138 317.199 34.2695C316.118 34.7253 315.292 35.3437 314.719 36.125C314.146 36.9062 313.853 37.7982 313.84 38.8008C313.84 39.6341 314.029 40.3568 314.406 40.9687C314.797 41.5807 315.324 42.1016 315.988 42.5312C316.652 42.9479 317.388 43.2995 318.195 43.5859C319.003 43.8724 319.816 44.1133 320.637 44.3086L324.387 45.2461C325.897 45.5977 327.349 46.0729 328.742 46.6719C330.148 47.2708 331.405 48.026 332.512 48.9375C333.632 49.849 334.517 50.9492 335.168 52.2383C335.819 53.5273 336.145 55.0378 336.145 56.7695C336.145 59.1133 335.546 61.1771 334.348 62.9609C333.15 64.7318 331.418 66.1185 329.152 67.1211C326.9 68.1107 324.172 68.6055 320.969 68.6055C317.857 68.6055 315.155 68.1237 312.863 67.1602C310.585 66.1966 308.801 64.7904 307.512 62.9414C306.236 61.0924 305.546 58.8398 305.441 56.1836H312.57C312.674 57.5768 313.104 58.7357 313.859 59.6602C314.615 60.5846 315.598 61.2747 316.809 61.7305C318.033 62.1862 319.4 62.4141 320.91 62.4141C322.486 62.4141 323.866 62.1797 325.051 61.7109C326.249 61.2292 327.186 60.5651 327.863 59.7187C328.54 58.8594 328.885 57.8568 328.898 56.7109C328.885 55.6693 328.579 54.8099 327.98 54.1328C327.382 53.4427 326.542 52.8698 325.461 52.4141C324.393 51.9453 323.143 51.5286 321.711 51.1641L317.16 49.9922C313.866 49.1458 311.262 47.8633 309.348 46.1445C307.447 44.4128 306.496 42.1146 306.496 39.25C306.496 36.8932 307.134 34.8294 308.41 33.0586C309.699 31.2878 311.451 29.9141 313.664 28.9375C315.878 27.9479 318.384 27.4531 321.184 27.4531C324.022 27.4531 326.509 27.9479 328.645 28.9375C330.793 29.9141 332.479 31.2747 333.703 33.0195C334.927 34.7513 335.559 36.7435 335.598 38.9961H328.625ZM355.573 68.5859C352.565 68.5859 349.968 67.9609 347.78 66.7109C345.606 65.4479 343.933 63.6641 342.761 61.3594C341.589 59.0417 341.003 56.3138 341.003 53.1758C341.003 50.0898 341.589 47.3815 342.761 45.0508C343.946 42.707 345.599 40.8841 347.722 39.582C349.844 38.2669 352.338 37.6094 355.202 37.6094C357.051 37.6094 358.796 37.9089 360.437 38.5078C362.09 39.0937 363.549 40.0052 364.812 41.2422C366.088 42.4792 367.09 44.0547 367.819 45.9687C368.549 47.8698 368.913 50.1354 368.913 52.7656V54.9336H344.323V50.168H362.136C362.123 48.8138 361.83 47.6094 361.257 46.5547C360.684 45.487 359.883 44.6471 358.854 44.0352C357.839 43.4232 356.654 43.1172 355.3 43.1172C353.854 43.1172 352.585 43.4687 351.491 44.1719C350.397 44.862 349.545 45.7734 348.933 46.9062C348.334 48.026 348.028 49.2565 348.015 50.5977V54.7578C348.015 56.5026 348.334 58 348.972 59.25C349.61 60.487 350.502 61.4375 351.647 62.1016C352.793 62.7526 354.134 63.0781 355.671 63.0781C356.7 63.0781 357.631 62.9349 358.464 62.6484C359.297 62.349 360.02 61.9128 360.632 61.3398C361.244 60.7669 361.706 60.0573 362.019 59.2109L368.62 59.9531C368.203 61.6979 367.409 63.2214 366.237 64.5234C365.078 65.8125 363.594 66.8151 361.784 67.5312C359.974 68.2344 357.904 68.5859 355.573 68.5859ZM381.965 28V68H374.895V28H381.965ZM396.306 28V68H389.235V28H396.306ZM403.576 68V38H410.646V68H403.576ZM407.131 33.7422C406.011 33.7422 405.048 33.3711 404.24 32.6289C403.433 31.8737 403.029 30.9687 403.029 29.9141C403.029 28.8464 403.433 27.9414 404.24 27.1992C405.048 26.444 406.011 26.0664 407.131 26.0664C408.264 26.0664 409.227 26.444 410.021 27.1992C410.829 27.9414 411.232 28.8464 411.232 29.9141C411.232 30.9687 410.829 31.8737 410.021 32.6289C409.227 33.3711 408.264 33.7422 407.131 33.7422ZM424.987 50.4219V68H417.917V38H424.675V43.0977H425.026C425.716 41.418 426.817 40.0833 428.327 39.0937C429.851 38.1042 431.732 37.6094 433.972 37.6094C436.042 37.6094 437.845 38.0521 439.382 38.9375C440.931 39.8229 442.129 41.1055 442.976 42.7852C443.835 44.4648 444.258 46.5026 444.245 48.8984V68H437.175V49.9922C437.175 47.987 436.654 46.418 435.612 45.2852C434.584 44.1523 433.158 43.5859 431.335 43.5859C430.098 43.5859 428.998 43.8594 428.034 44.4062C427.084 44.9401 426.335 45.7148 425.788 46.7305C425.254 47.7461 424.987 48.9766 424.987 50.4219ZM464.479 79.875C461.94 79.875 459.759 79.5299 457.937 78.8398C456.114 78.1628 454.649 77.2513 453.542 76.1055C452.435 74.9596 451.667 73.6901 451.237 72.2969L457.604 70.7539C457.891 71.3398 458.308 71.9193 458.854 72.4922C459.401 73.0781 460.137 73.5599 461.062 73.9375C461.999 74.3281 463.177 74.5234 464.597 74.5234C466.602 74.5234 468.262 74.0352 469.577 73.0586C470.892 72.0951 471.55 70.5065 471.55 68.293V62.6094H471.198C470.834 63.3385 470.3 64.0872 469.597 64.8555C468.907 65.6237 467.989 66.2682 466.843 66.7891C465.71 67.3099 464.284 67.5703 462.565 67.5703C460.261 67.5703 458.171 67.0299 456.296 65.9492C454.434 64.8555 452.95 63.2279 451.843 61.0664C450.749 58.8919 450.202 56.1706 450.202 52.9023C450.202 49.6081 450.749 46.8281 451.843 44.5625C452.95 42.2839 454.44 40.5586 456.315 39.3867C458.19 38.2018 460.28 37.6094 462.585 37.6094C464.343 37.6094 465.788 37.9089 466.921 38.5078C468.067 39.0937 468.978 39.8034 469.655 40.6367C470.332 41.457 470.847 42.2318 471.198 42.9609H471.589V38H478.562V68.4883C478.562 71.0534 477.95 73.1758 476.726 74.8555C475.502 76.5352 473.828 77.7917 471.706 78.625C469.584 79.4583 467.175 79.875 464.479 79.875ZM464.538 62.0234C466.035 62.0234 467.312 61.6589 468.366 60.9297C469.421 60.2005 470.222 59.1523 470.769 57.7852C471.315 56.418 471.589 54.7773 471.589 52.8633C471.589 50.9753 471.315 49.3216 470.769 47.9023C470.235 46.4831 469.44 45.3828 468.386 44.6016C467.344 43.8073 466.062 43.4102 464.538 43.4102C462.963 43.4102 461.647 43.8203 460.593 44.6406C459.538 45.4609 458.744 46.5872 458.21 48.0195C457.676 49.4388 457.409 51.0534 457.409 52.8633C457.409 54.6992 457.676 56.3073 458.21 57.6875C458.757 59.0547 459.558 60.1224 460.612 60.8906C461.68 61.6458 462.989 62.0234 464.538 62.0234Z" fill="white"/>
</g>
<path d="M512.5 72L512.5 26C512.5 13.2974 502.203 3 489.5 3L444 3.00001" stroke="url(#paint0_linear_12_11)" stroke-width="5" stroke-linecap="round"/>
<path d="M44 33V79C44 91.7026 54.2975 102 67 102H112.5" stroke="url(#paint1_linear_12_11)" stroke-width="5" stroke-linecap="round"/>
<defs>
<filter id="filter0_dddddddd_12_11" x="0.929688" y="26.0664" width="557.632" height="233.809" filterUnits="userSpaceOnUse" color-interpolation-filters="sRGB">
<feFlood flood-opacity="0" result="BackgroundImageFix"/>
<feColorMatrix in="SourceAlpha" type="matrix" values="0 0 0 0 0 0 0 0 0 0 0 0 0 0 0 0 0 0 127 0" result="hardAlpha"/>
<feOffset dy="1.99324"/>
<feGaussianBlur stdDeviation="0.797297"/>
<feColorMatrix type="matrix" values="0 0 0 0 0 0 0 0 0 0 0 0 0 0 0 0 0 0 0.0862802 0"/>
<feBlend mode="normal" in2="BackgroundImageFix" result="effect1_dropShadow_12_11"/>
<feColorMatrix in="SourceAlpha" type="matrix" values="0 0 0 0 0 0 0 0 0 0 0 0 0 0 0 0 0 0 127 0" result="hardAlpha"/>
<feOffset dy="4.5288"/>
<feGaussianBlur stdDeviation="1.81152"/>
<feColorMatrix type="matrix" values="0 0 0 0 0 0 0 0 0 0 0 0 0 0 0 0 0 0 0.125428 0"/>
<feBlend mode="normal" in2="effect1_dropShadow_12_11" result="effect2_dropShadow_12_11"/>
<feColorMatrix in="SourceAlpha" type="matrix" values="0 0 0 0 0 0 0 0 0 0 0 0 0 0 0 0 0 0 127 0" result="hardAlpha"/>
<feOffset dy="7.88218"/>
<feGaussianBlur stdDeviation="3.15287"/>
<feColorMatrix type="matrix" values="0 0 0 0 0 0 0 0 0 0 0 0 0 0 0 0 0 0 0.154478 0"/>
<feBlend mode="normal" in2="effect2_dropShadow_12_11" result="effect3_dropShadow_12_11"/>
<feColorMatrix in="SourceAlpha" type="matrix" values="0 0 0 0 0 0 0 0 0 0 0 0 0 0 0 0 0 0 127 0" result="hardAlpha"/>
<feOffset dy="12.5216"/>
<feGaussianBlur stdDeviation="5.00862"/>
<feColorMatrix type="matrix" values="0 0 0 0 0 0 0 0 0 0 0 0 0 0 0 0 0 0 0.18 0"/>
<feBlend mode="normal" in2="effect3_dropShadow_12_11" result="effect4_dropShadow_12_11"/>
<feColorMatrix in="SourceAlpha" type="matrix" values="0 0 0 0 0 0 0 0 0 0 0 0 0 0 0 0 0 0 127 0" result="hardAlpha"/>
<feOffset dy="19.3198"/>
<feGaussianBlur stdDeviation="7.72793"/>
<feColorMatrix type="matrix" values="0 0 0 0 0 0 0 0 0 0 0 0 0 0 0 0 0 0 0.205522 0"/>
<feBlend mode="normal" in2="effect4_dropShadow_12_11" result="effect5_dropShadow_12_11"/>
<feColorMatrix in="SourceAlpha" type="matrix" values="0 0 0 0 0 0 0 0 0 0 0 0 0 0 0 0 0 0 127 0" result="hardAlpha"/>
<feOffset dy="30.1471"/>
<feGaussianBlur stdDeviation="12.0588"/>
<feColorMatrix type="matrix" values="0 0 0 0 0 0 0 0 0 0 0 0 0 0 0 0 0 0 0.234572 0"/>
<feBlend mode="normal" in2="effect5_dropShadow_12_11" result="effect6_dropShadow_12_11"/>
<feColorMatrix in="SourceAlpha" type="matrix" values="0 0 0 0 0 0 0 0 0 0 0 0 0 0 0 0 0 0 127 0" result="hardAlpha"/>
<feOffset dy="50.0488"/>
<feGaussianBlur stdDeviation="20.0195"/>
<feColorMatrix type="matrix" values="0 0 0 0 0 0 0 0 0 0 0 0 0 0 0 0 0 0 0.27372 0"/>
<feBlend mode="normal" in2="effect6_dropShadow_12_11" result="effect7_dropShadow_12_11"/>
<feColorMatrix in="SourceAlpha" type="matrix" values="0 0 0 0 0 0 0 0 0 0 0 0 0 0 0 0 0 0 127 0" result="hardAlpha"/>
<feOffset dy="100"/>
<feGaussianBlur stdDeviation="40"/>
<feColorMatrix type="matrix" values="0 0 0 0 0 0 0 0 0 0 0 0 0 0 0 0 0 0 0.36 0"/>
<feBlend mode="normal" in2="effect7_dropShadow_12_11" result="effect8_dropShadow_12_11"/>
<feBlend mode="normal" in="SourceGraphic" in2="effect8_dropShadow_12_11" result="shape"/>
</filter>
<linearGradient id="paint0_linear_12_11" x1="513" y1="74" x2="444" y2="3" gradientUnits="userSpaceOnUse">
<stop stop-color="#55B000"/>
<stop offset="0.500917" stop-color="white" stop-opacity="0.156606"/>
<stop offset="1" stop-color="#50790B"/>
</linearGradient>
<linearGradient id="paint1_linear_12_11" x1="43.5" y1="31" x2="112.5" y2="102" gradientUnits="userSpaceOnUse">
<stop stop-color="#55B000"/>
<stop offset="0.500917" stop-color="white" stop-opacity="0.156606"/>
<stop offset="1" stop-color="#50790B"/>
</linearGradient>
</defs>
</svg>
